# xmcd
#
# Track frame offsets: 
#        150
#        19788
#        35595
#        58041
#        81181
#        99078
#        130323
#        148768
#        166599
#        184387
#        207345
#        227022
#        242312
#        267010
#        287044
#        302478
#        319282
#        335462
#
# Disc length: 4741 seconds
#
# Revision: 0
# Processed by: cddbd v1.5.2PL0 Copyright (c) Steve Scherf et al.
# Submitted via: ExactAudioCopy v1.3
#
DISCID=f5128312
DTITLE=Various Artist - Akella Presents - Vol.193 - Blues-Rock  CD1
DYEAR=2019
DGENRE=Blues
TTITLE0=Backbone Blues Band - Ain't A Love Song
TTITLE1=Motherґz Boyzz - Bad Boy Blues
TTITLE2=Nick Harless and The Harless Brothers - Warfield
TTITLE3=King Of The World - Give Me Back My Heart
TTITLE4=Juniper Inc. - Catch 22
TTITLE5=The Devil And The Almighty Blues - No Man S Land
TTITLE6=Little John Chrisley - Living Blues
TTITLE7=The Alabama Lovesnakes - Train, Take My Pain Away
TTITLE8=The Stone Foxes - Everybody Knows
TTITLE9=The James Pitts Band - Come To Play The Blues
TTITLE10=Wicked Rumble - Authentic Russian Bluesmen
TTITLE11=61 Ghosts - Black Cadillac
TTITLE12=Gary Eisenbraun - Pale Moon
TTITLE13=Killer - Dr. Screamgunn
TTITLE14=Reverend Jack - Bullet (Man Of God No More)
TTITLE15=Jay O'Rourke - Early Grave
TTITLE16=Steve Fister - She Ain't Lonesome
TTITLE17=Swilly - Between Crazy
EXTD=
EXTT0=
EXTT1=
EXTT2=
EXTT3=
EXTT4=
EXTT5=
EXTT6=
EXTT7=
EXTT8=
EXTT9=
EXTT10=
EXTT11=
EXTT12=
EXTT13=
EXTT14=
EXTT15=
EXTT16=
EXTT17=
PLAYORDER=
